<svg version="1.1" id="Layer_1" xmlns="http://www.w3.org/2000/svg" xmlns:xlink="http://www.w3.org/1999/xlink" x="0px" y="0px"
	 width="100%" viewBox="0 0 2048 2048" enable-background="new 0 0 2048 2048" xml:space="preserve">
<path fill="#FFC72C" opacity="1.000000" stroke="none" 
	d="
M961.000000,1.000000 
	C1003.354248,1.000000 1045.708496,1.000000 1088.189819,1.350039 
	C1089.330688,2.132042 1090.317383,2.855736 1091.362305,2.952640 
	C1109.977417,4.679064 1128.617310,6.154476 1147.214111,8.054663 
	C1160.687256,9.431334 1174.180786,10.898815 1187.528564,13.139386 
	C1204.474243,15.983882 1221.267822,19.725054 1238.151978,22.948431 
	C1269.807251,28.991779 1300.839355,37.487110 1331.551392,47.105618 
	C1348.956421,52.556553 1366.204102,58.595055 1383.249756,65.085464 
	C1404.058960,73.008865 1424.792358,81.206253 1445.164185,90.180328 
	C1462.468750,97.803284 1479.431641,106.284966 1496.150269,115.133743 
	C1516.900879,126.116547 1537.756592,137.050629 1557.633057,149.496902 
	C1582.078125,164.803909 1605.707764,181.436218 1629.419922,197.884674 
	C1658.577637,218.110718 1685.608276,241.055008 1711.997070,264.700165 
	C1726.115479,277.350555 1739.665161,290.701843 1752.745728,304.428375 
	C1771.640381,324.256134 1790.174438,344.448822 1808.289307,364.991089 
	C1820.608276,378.960999 1832.675537,393.270508 1843.554443,408.365631 
	C1860.485352,431.857971 1877.093262,455.659790 1892.391846,480.230835 
	C1908.805298,506.592621 1924.274658,533.610657 1938.784424,561.067200 
	C1950.017212,582.323181 1959.523682,604.528809 1969.072998,626.625366 
	C1976.627930,644.106018 1983.742676,661.838013 1989.865112,679.861877 
	C1998.274780,704.618591 2006.189819,729.583069 2013.151733,754.780334 
	C2019.866577,779.083679 2025.699707,803.672607 2030.795166,828.368164 
	C2034.769287,847.629395 2037.151978,867.227112 2039.986084,886.712585 
	C2041.888794,899.793396 2043.610107,912.912720 2044.916870,926.064087 
	C2045.991089,936.875671 2046.295166,947.762634 2047.083496,958.605835 
	C2047.144531,959.445923 2048.334717,960.203857 2049.000000,961.000000 
	C2049.000000,1011.020935 2049.000000,1061.041870 2048.635254,1111.209717 
	C2047.858765,1112.043701 2047.144165,1112.703979 2047.080811,1113.421387 
	C2046.331177,1121.928223 2045.844360,1130.461060 2044.963867,1138.953247 
	C2043.413574,1153.907227 2042.095825,1168.907227 2039.842407,1183.760742 
	C2036.994873,1202.528442 2034.131958,1221.362671 2029.793457,1239.819702 
	C2022.992188,1268.755127 2015.687256,1297.617432 2007.240112,1326.108887 
	C1997.465088,1359.078369 1985.949219,1391.548462 1971.484741,1422.793823 
	C1958.508789,1450.823975 1945.545410,1478.948242 1930.696533,1505.999146 
	C1915.296753,1534.053955 1897.845947,1560.998535 1880.870850,1588.165527 
	C1873.568481,1599.852295 1865.661377,1611.229736 1857.222412,1622.122925 
	C1842.423950,1641.225220 1827.353149,1660.141846 1811.740112,1678.580444 
	C1797.601562,1695.277954 1782.861328,1711.491821 1767.864014,1727.427124 
	C1757.640503,1738.289917 1746.595581,1748.388428 1735.770630,1758.673706 
	C1728.121582,1765.941162 1720.365723,1773.109375 1712.408813,1780.036255 
	C1698.828613,1791.858154 1685.310791,1803.776001 1671.291138,1815.062500 
	C1655.576050,1827.713745 1639.663330,1840.173828 1623.227661,1851.860596 
	C1606.092407,1864.044922 1588.599854,1875.819946 1570.599121,1886.672119 
	C1544.665405,1902.307251 1518.405884,1917.455444 1491.757935,1931.833862 
	C1473.955811,1941.439453 1455.452515,1949.844116 1436.872803,1957.884155 
	C1414.491821,1967.569336 1392.005249,1977.179199 1369.005981,1985.224976 
	C1338.386597,1995.936157 1307.566406,2006.402832 1276.208130,2014.580200 
	C1244.263916,2022.910400 1211.643311,2028.764648 1179.163818,2034.879639 
	C1158.845947,2038.705322 1138.284302,2041.359253 1117.750488,2043.872803 
	C1104.223511,2045.528687 1090.548340,2045.961182 1076.950806,2047.077515 
	C1075.921509,2047.161865 1074.981445,2048.333496 1074.000000,2049.000000 
	C1036.645752,2049.000000 999.291565,2049.000000 961.810547,2048.650146 
	C960.836487,2047.869629 960.017212,2047.133179 959.138062,2047.052979 
	C940.182251,2045.324707 921.201233,2043.853027 902.264832,2041.938965 
	C888.786926,2040.576416 875.291443,2039.087646 861.940552,2036.842407 
	C845.007751,2033.994629 828.076050,2030.895020 811.389709,2026.881714 
	C781.692017,2019.739624 752.021851,2012.383545 722.645447,2004.041504 
	C703.868286,1998.709229 685.639282,1991.446289 667.165100,1985.047119 
	C634.438721,1973.711426 602.942444,1959.442017 571.874146,1944.281250 
	C553.855164,1935.488281 536.118286,1926.002686 518.841492,1915.831543 
	C495.419586,1902.042725 472.135284,1887.932251 449.568481,1872.801514 
	C421.993317,1854.312622 395.157166,1834.706055 370.202118,1812.695801 
	C352.565277,1797.140015 334.862640,1781.654175 317.462708,1765.836426 
	C309.304810,1758.420288 301.725891,1750.359009 294.006287,1742.470947 
	C286.706146,1735.011841 279.337616,1727.599365 272.402435,1719.807373 
	C258.756134,1704.475464 245.081772,1689.149414 231.994766,1673.344238 
	C219.311432,1658.026611 206.701889,1642.569336 195.234299,1626.343506 
	C180.407593,1605.364624 165.945419,1584.040405 152.782639,1561.995361 
	C135.767838,1533.499268 119.691101,1504.408691 104.190384,1475.056396 
	C95.381149,1458.375244 88.194557,1440.800659 80.887238,1423.372681 
	C73.523354,1405.809814 66.255707,1388.154053 60.134598,1370.135254 
	C51.721462,1345.369385 43.797623,1320.397217 36.833031,1295.190552 
	C30.120125,1270.894775 24.295683,1246.311890 19.204472,1221.623291 
	C15.231749,1202.358765 12.846867,1182.758423 10.012500,1163.270142 
	C8.110231,1150.190674 6.389637,1137.072388 5.083410,1123.922363 
	C4.009096,1113.107056 3.704470,1102.216553 2.916416,1091.369629 
	C2.855976,1090.537720 1.665297,1089.787964 0.999983,1089.000000 
	C1.000000,1046.312500 1.000000,1003.624878 1.365642,960.789856 
	C2.142675,959.954346 2.861530,959.290894 2.918886,958.574524 
	C3.667108,949.229614 4.296630,939.875244 5.007201,930.527161 
	C5.642132,922.174316 5.951947,913.772888 7.091525,905.487305 
	C9.486439,888.074402 12.061534,870.676575 15.063709,853.359497 
	C18.470362,833.709473 21.681343,813.976135 26.326815,794.602539 
	C32.314823,769.630005 38.751247,744.691467 46.623230,720.263123 
	C55.976833,691.237122 66.105614,662.376892 77.672958,634.172607 
	C88.455093,607.882812 101.473953,582.504395 113.696289,556.814270 
	C118.292252,547.153992 123.038887,537.526917 128.383209,528.269470 
	C138.091888,511.452026 147.901886,494.666901 158.402695,478.339752 
	C170.581314,459.403961 182.962708,440.542480 196.332291,422.443756 
	C211.044128,402.527863 226.735367,383.315125 242.464584,364.177979 
	C253.718140,350.486237 265.472321,337.179016 277.498596,324.157898 
	C287.127289,313.732635 297.320038,303.805908 307.588989,293.999878 
	C321.806122,280.423645 336.071106,266.875732 350.797729,253.861252 
	C364.283997,241.942917 378.092407,230.337051 392.334564,219.339020 
	C410.707458,205.151215 429.111389,190.881302 448.485016,178.141708 
	C474.542969,161.006668 501.188263,144.686508 528.243774,129.171494 
	C549.979248,116.707260 572.324524,105.144821 595.085999,94.675522 
	C618.974792,83.687721 643.350159,73.548042 668.115173,64.728828 
	C698.517761,53.901962 729.341614,44.118889 760.370178,35.235756 
	C782.430237,28.920206 805.102722,24.714281 827.556152,19.815607 
	C837.857483,17.568146 848.260498,15.742173 858.670105,14.048546 
	C868.485596,12.451591 878.365234,11.241828 888.225708,9.929695 
	C900.840149,8.251065 913.435303,6.358009 926.091980,5.086860 
	C936.898499,4.001531 947.783081,3.704594 958.622742,2.916431 
	C959.457214,2.855763 960.209534,1.665321 961.000000,1.000000 
M1509.431763,1642.725464 
	C1509.817505,1636.915161 1510.517578,1631.106079 1510.536987,1625.294556 
	C1510.645386,1592.796997 1510.589355,1560.298706 1510.589478,1527.800781 
	C1510.589478,1525.888916 1510.589478,1523.977051 1510.589478,1521.583496 
	C1543.147095,1521.583496 1574.896851,1521.583496 1606.966187,1521.583496 
	C1606.966187,1519.113281 1606.975708,1517.135498 1606.964722,1515.157715 
	C1605.861450,1315.674072 1604.757812,1116.190308 1603.637329,916.706726 
	C1603.624146,914.380981 1603.546631,912.035706 1603.237183,909.734680 
	C1601.205811,894.627136 1598.973999,879.545532 1597.054810,864.424133 
	C1594.656250,845.525635 1592.583862,826.585938 1590.200806,807.685486 
	C1588.627197,795.205933 1586.622070,782.780762 1585.046997,770.301392 
	C1582.661377,751.401123 1580.567627,732.463989 1578.184448,713.563416 
	C1576.610840,701.084106 1574.604370,688.659180 1573.047607,676.177979 
	C1570.813354,658.264648 1568.937378,640.306458 1566.670288,622.397583 
	C1564.986084,609.093079 1562.751099,595.858276 1561.071533,582.553284 
	C1558.847290,564.931702 1557.017578,547.260620 1554.846802,529.631836 
	C1552.720947,512.366394 1550.202148,495.148438 1548.166748,477.872986 
	C1542.356201,428.552307 1519.094727,389.990448 1477.386230,362.849091 
	C1446.377563,342.670563 1412.905396,327.857880 1377.687988,316.543579 
	C1319.608521,297.884369 1260.603760,283.106201 1200.414917,273.307434 
	C1176.340942,269.388184 1152.033325,266.844604 1127.787231,264.065430 
	C1112.657959,262.331238 1097.451538,261.246368 1082.266724,260.031799 
	C1075.334839,259.477417 1068.373535,259.274048 1061.422485,258.980316 
	C1046.540405,258.351410 1031.659058,257.390961 1016.772583,257.294800 
	C1006.540466,257.228668 996.299866,258.378418 986.064026,259.000854 
	C968.523071,260.067505 950.916748,260.522064 933.457764,262.367310 
	C907.305969,265.131317 881.154053,268.222137 855.187195,272.340271 
	C801.731323,280.817902 749.118347,293.111816 697.226074,308.599426 
	C658.706177,320.095978 621.113708,333.533020 586.211975,353.930603 
	C543.592041,378.838898 513.514587,413.431976 503.861359,462.667145 
	C498.362701,490.712189 495.752258,519.330750 492.042389,547.717346 
	C487.446472,582.883179 483.068329,618.077454 478.578644,653.257263 
	C474.067932,688.601746 469.532410,723.943054 465.013916,759.286560 
	C460.495331,794.630310 455.926147,829.967651 451.495728,865.322510 
	C449.405548,882.001831 445.932037,898.712219 445.899445,915.414001 
	C445.508759,1115.567261 445.646820,1315.721436 445.646667,1515.875366 
	C445.646667,1517.655518 445.646637,1519.435791 445.646637,1521.751221 
	C462.719971,1521.751221 479.177399,1521.751099 495.634857,1521.751099 
	C512.071777,1521.751099 528.508667,1521.751221 545.368164,1521.751221 
	C545.368164,1524.367554 545.368164,1526.333496 545.368164,1528.299561 
	C545.368164,1559.964233 545.336914,1591.629028 545.422607,1623.293457 
	C545.430176,1626.063721 545.810547,1628.963501 546.683716,1631.581055 
	C557.037903,1662.619141 589.166809,1688.959351 627.817932,1688.241089 
	C662.917664,1687.588867 693.964172,1666.349365 706.288208,1633.931274 
	C707.553650,1630.602417 708.249573,1626.847656 708.266296,1623.286255 
	C708.415894,1591.455566 708.349060,1559.624023 708.364380,1527.792725 
	C708.365295,1525.881592 708.522705,1523.970459 708.603149,1522.152222 
	C920.760254,1522.152222 1132.299927,1522.152222 1344.088501,1522.152222 
	C1344.088501,1524.367310 1344.088501,1526.186157 1344.088501,1528.005005 
	C1344.088745,1560.669556 1343.864380,1593.336914 1344.246338,1625.996948 
	C1344.342407,1634.221069 1345.357788,1642.726807 1347.696777,1650.583374 
	C1359.962646,1691.785156 1405.271362,1716.604492 1448.320801,1705.292847 
	C1480.458130,1696.848755 1502.231567,1677.264160 1509.431763,1642.725464 
z"/>
<path fill="#000000" opacity="1.000000" stroke="none" 
	d="
M1074.468628,2049.000000 
	C1074.981445,2048.333496 1075.921509,2047.161865 1076.950806,2047.077515 
	C1090.548340,2045.961182 1104.223511,2045.528687 1117.750488,2043.872803 
	C1138.284302,2041.359253 1158.845947,2038.705322 1179.163818,2034.879639 
	C1211.643311,2028.764648 1244.263916,2022.910400 1276.208130,2014.580200 
	C1307.566406,2006.402832 1338.386597,1995.936157 1369.005981,1985.224976 
	C1392.005249,1977.179199 1414.491821,1967.569336 1436.872803,1957.884155 
	C1455.452515,1949.844116 1473.955811,1941.439453 1491.757935,1931.833862 
	C1518.405884,1917.455444 1544.665405,1902.307251 1570.599121,1886.672119 
	C1588.599854,1875.819946 1606.092407,1864.044922 1623.227661,1851.860596 
	C1639.663330,1840.173828 1655.576050,1827.713745 1671.291138,1815.062500 
	C1685.310791,1803.776001 1698.828613,1791.858154 1712.408813,1780.036255 
	C1720.365723,1773.109375 1728.121582,1765.941162 1735.770630,1758.673706 
	C1746.595581,1748.388428 1757.640503,1738.289917 1767.864014,1727.427124 
	C1782.861328,1711.491821 1797.601562,1695.277954 1811.740112,1678.580444 
	C1827.353149,1660.141846 1842.423950,1641.225220 1857.222412,1622.122925 
	C1865.661377,1611.229736 1873.568481,1599.852295 1880.870850,1588.165527 
	C1897.845947,1560.998535 1915.296753,1534.053955 1930.696533,1505.999146 
	C1945.545410,1478.948242 1958.508789,1450.823975 1971.484741,1422.793823 
	C1985.949219,1391.548462 1997.465088,1359.078369 2007.240112,1326.108887 
	C2015.687256,1297.617432 2022.992188,1268.755127 2029.793457,1239.819702 
	C2034.131958,1221.362671 2036.994873,1202.528442 2039.842407,1183.760742 
	C2042.095825,1168.907227 2043.413574,1153.907227 2044.963867,1138.953247 
	C2045.844360,1130.461060 2046.331177,1121.928223 2047.080811,1113.421387 
	C2047.144165,1112.703979 2047.858765,1112.043701 2048.635254,1111.678467 
	C2049.000000,1424.261841 2049.000000,1736.523804 2049.000000,2049.000000 
	C1724.312500,2049.000000 1399.624878,2049.000000 1074.468628,2049.000000 
z"/>
<path fill="#000000" opacity="1.000000" stroke="none" 
	d="
M960.531372,1.000000 
	C960.209534,1.665321 959.457214,2.855763 958.622742,2.916431 
	C947.783081,3.704594 936.898499,4.001531 926.091980,5.086860 
	C913.435303,6.358009 900.840149,8.251065 888.225708,9.929695 
	C878.365234,11.241828 868.485596,12.451591 858.670105,14.048546 
	C848.260498,15.742173 837.857483,17.568146 827.556152,19.815607 
	C805.102722,24.714281 782.430237,28.920206 760.370178,35.235756 
	C729.341614,44.118889 698.517761,53.901962 668.115173,64.728828 
	C643.350159,73.548042 618.974792,83.687721 595.085999,94.675522 
	C572.324524,105.144821 549.979248,116.707260 528.243774,129.171494 
	C501.188263,144.686508 474.542969,161.006668 448.485016,178.141708 
	C429.111389,190.881302 410.707458,205.151215 392.334564,219.339020 
	C378.092407,230.337051 364.283997,241.942917 350.797729,253.861252 
	C336.071106,266.875732 321.806122,280.423645 307.588989,293.999878 
	C297.320038,303.805908 287.127289,313.732635 277.498596,324.157898 
	C265.472321,337.179016 253.718140,350.486237 242.464584,364.177979 
	C226.735367,383.315125 211.044128,402.527863 196.332291,422.443756 
	C182.962708,440.542480 170.581314,459.403961 158.402695,478.339752 
	C147.901886,494.666901 138.091888,511.452026 128.383209,528.269470 
	C123.038887,537.526917 118.292252,547.153992 113.696289,556.814270 
	C101.473953,582.504395 88.455093,607.882812 77.672958,634.172607 
	C66.105614,662.376892 55.976833,691.237122 46.623230,720.263123 
	C38.751247,744.691467 32.314823,769.630005 26.326815,794.602539 
	C21.681343,813.976135 18.470362,833.709473 15.063709,853.359497 
	C12.061534,870.676575 9.486439,888.074402 7.091525,905.487305 
	C5.951947,913.772888 5.642132,922.174316 5.007201,930.527161 
	C4.296630,939.875244 3.667108,949.229614 2.918886,958.574524 
	C2.861530,959.290894 2.142675,959.954346 1.365642,960.321167 
	C1.000000,640.406189 1.000000,320.812378 1.000000,1.000000 
	C320.687531,1.000000 640.375122,1.000000 960.531372,1.000000 
z"/>
<path fill="#000000" opacity="1.000000" stroke="none" 
	d="
M0.999983,1089.468628 
	C1.665297,1089.787964 2.855976,1090.537720 2.916416,1091.369629 
	C3.704470,1102.216553 4.009096,1113.107056 5.083410,1123.922363 
	C6.389637,1137.072388 8.110231,1150.190674 10.012500,1163.270142 
	C12.846867,1182.758423 15.231749,1202.358765 19.204472,1221.623291 
	C24.295683,1246.311890 30.120125,1270.894775 36.833031,1295.190552 
	C43.797623,1320.397217 51.721462,1345.369385 60.134598,1370.135254 
	C66.255707,1388.154053 73.523354,1405.809814 80.887238,1423.372681 
	C88.194557,1440.800659 95.381149,1458.375244 104.190384,1475.056396 
	C119.691101,1504.408691 135.767838,1533.499268 152.782639,1561.995361 
	C165.945419,1584.040405 180.407593,1605.364624 195.234299,1626.343506 
	C206.701889,1642.569336 219.311432,1658.026611 231.994766,1673.344238 
	C245.081772,1689.149414 258.756134,1704.475464 272.402435,1719.807373 
	C279.337616,1727.599365 286.706146,1735.011841 294.006287,1742.470947 
	C301.725891,1750.359009 309.304810,1758.420288 317.462708,1765.836426 
	C334.862640,1781.654175 352.565277,1797.140015 370.202118,1812.695801 
	C395.157166,1834.706055 421.993317,1854.312622 449.568481,1872.801514 
	C472.135284,1887.932251 495.419586,1902.042725 518.841492,1915.831543 
	C536.118286,1926.002686 553.855164,1935.488281 571.874146,1944.281250 
	C602.942444,1959.442017 634.438721,1973.711426 667.165100,1985.047119 
	C685.639282,1991.446289 703.868286,1998.709229 722.645447,2004.041504 
	C752.021851,2012.383545 781.692017,2019.739624 811.389709,2026.881714 
	C828.076050,2030.895020 845.007751,2033.994629 861.940552,2036.842407 
	C875.291443,2039.087646 888.786926,2040.576416 902.264832,2041.938965 
	C921.201233,2043.853027 940.182251,2045.324707 959.138062,2047.052979 
	C960.017212,2047.133179 960.836487,2047.869629 961.341858,2048.650146 
	C641.072876,2049.000000 321.145813,2049.000000 1.000000,2049.000000 
	C1.000000,1729.312500 1.000000,1409.624878 0.999983,1089.468628 
z"/>
<path fill="#000000" opacity="1.000000" stroke="none" 
	d="
M2049.000000,960.531372 
	C2048.334717,960.203857 2047.144531,959.445923 2047.083496,958.605835 
	C2046.295166,947.762634 2045.991089,936.875671 2044.916870,926.064087 
	C2043.610107,912.912720 2041.888794,899.793396 2039.986084,886.712585 
	C2037.151978,867.227112 2034.769287,847.629395 2030.795166,828.368164 
	C2025.699707,803.672607 2019.866577,779.083679 2013.151733,754.780334 
	C2006.189819,729.583069 1998.274780,704.618591 1989.865112,679.861877 
	C1983.742676,661.838013 1976.627930,644.106018 1969.072998,626.625366 
	C1959.523682,604.528809 1950.017212,582.323181 1938.784424,561.067200 
	C1924.274658,533.610657 1908.805298,506.592621 1892.391846,480.230835 
	C1877.093262,455.659790 1860.485352,431.857971 1843.554443,408.365631 
	C1832.675537,393.270508 1820.608276,378.960999 1808.289307,364.991089 
	C1790.174438,344.448822 1771.640381,324.256134 1752.745728,304.428375 
	C1739.665161,290.701843 1726.115479,277.350555 1711.997070,264.700165 
	C1685.608276,241.055008 1658.577637,218.110718 1629.419922,197.884674 
	C1605.707764,181.436218 1582.078125,164.803909 1557.633057,149.496902 
	C1537.756592,137.050629 1516.900879,126.116547 1496.150269,115.133743 
	C1479.431641,106.284966 1462.468750,97.803284 1445.164185,90.180328 
	C1424.792358,81.206253 1404.058960,73.008865 1383.249756,65.085464 
	C1366.204102,58.595055 1348.956421,52.556553 1331.551392,47.105618 
	C1300.839355,37.487110 1269.807251,28.991779 1238.151978,22.948431 
	C1221.267822,19.725054 1204.474243,15.983882 1187.528564,13.139386 
	C1174.180786,10.898815 1160.687256,9.431334 1147.214111,8.054663 
	C1128.617310,6.154476 1109.977417,4.679064 1091.362305,2.952640 
	C1090.317383,2.855736 1089.330688,2.132042 1088.658447,1.350039 
	C1408.927124,1.000000 1728.854126,1.000000 2049.000000,1.000000 
	C2049.000000,320.687531 2049.000000,640.375122 2049.000000,960.531372 
z"/>
<path fill="#1C1E23" opacity="1.000000" stroke="none" 
	d="
M1509.342285,1643.149902 
	C1502.231567,1677.264160 1480.458130,1696.848755 1448.320801,1705.292847 
	C1405.271362,1716.604492 1359.962646,1691.785156 1347.696777,1650.583374 
	C1345.357788,1642.726807 1344.342407,1634.221069 1344.246338,1625.996948 
	C1343.864380,1593.336914 1344.088745,1560.669556 1344.088501,1528.005005 
	C1344.088501,1526.186157 1344.088501,1524.367310 1344.088501,1522.152222 
	C1132.299927,1522.152222 920.760254,1522.152222 708.603149,1522.152222 
	C708.522705,1523.970459 708.365295,1525.881592 708.364380,1527.792725 
	C708.349060,1559.624023 708.415894,1591.455566 708.266296,1623.286255 
	C708.249573,1626.847656 707.553650,1630.602417 706.288208,1633.931274 
	C693.964172,1666.349365 662.917664,1687.588867 627.817932,1688.241089 
	C589.166809,1688.959351 557.037903,1662.619141 546.683716,1631.581055 
	C545.810547,1628.963501 545.430176,1626.063721 545.422607,1623.293457 
	C545.336914,1591.629028 545.368164,1559.964233 545.368164,1528.299561 
	C545.368164,1526.333496 545.368164,1524.367554 545.368164,1521.751221 
	C528.508667,1521.751221 512.071777,1521.751099 495.634857,1521.751099 
	C479.177399,1521.751099 462.719971,1521.751221 445.646637,1521.751221 
	C445.646637,1519.435791 445.646667,1517.655518 445.646667,1515.875366 
	C445.646820,1315.721436 445.508759,1115.567261 445.899445,915.414001 
	C445.932037,898.712219 449.405548,882.001831 451.495728,865.322510 
	C455.926147,829.967651 460.495331,794.630310 465.013916,759.286560 
	C469.532410,723.943054 474.067932,688.601746 478.578644,653.257263 
	C483.068329,618.077454 487.446472,582.883179 492.042389,547.717346 
	C495.752258,519.330750 498.362701,490.712189 503.861359,462.667145 
	C513.514587,413.431976 543.592041,378.838898 586.211975,353.930603 
	C621.113708,333.533020 658.706177,320.095978 697.226074,308.599426 
	C749.118347,293.111816 801.731323,280.817902 855.187195,272.340271 
	C881.154053,268.222137 907.305969,265.131317 933.457764,262.367310 
	C950.916748,260.522064 968.523071,260.067505 986.064026,259.000854 
	C996.299866,258.378418 1006.540466,257.228668 1016.772583,257.294800 
	C1031.659058,257.390961 1046.540405,258.351410 1061.422485,258.980316 
	C1068.373535,259.274048 1075.334839,259.477417 1082.266724,260.031799 
	C1097.451538,261.246368 1112.657959,262.331238 1127.787231,264.065430 
	C1152.033325,266.844604 1176.340942,269.388184 1200.414917,273.307434 
	C1260.603760,283.106201 1319.608521,297.884369 1377.687988,316.543579 
	C1412.905396,327.857880 1446.377563,342.670563 1477.386230,362.849091 
	C1519.094727,389.990448 1542.356201,428.552307 1548.166748,477.872986 
	C1550.202148,495.148438 1552.720947,512.366394 1554.846802,529.631836 
	C1557.017578,547.260620 1558.847290,564.931702 1561.071533,582.553284 
	C1562.751099,595.858276 1564.986084,609.093079 1566.670288,622.397583 
	C1568.937378,640.306458 1570.813354,658.264648 1573.047607,676.177979 
	C1574.604370,688.659180 1576.610840,701.084106 1578.184448,713.563416 
	C1580.567627,732.463989 1582.661377,751.401123 1585.046997,770.301392 
	C1586.622070,782.780762 1588.627197,795.205933 1590.200806,807.685486 
	C1592.583862,826.585938 1594.656250,845.525635 1597.054810,864.424133 
	C1598.973999,879.545532 1601.205811,894.627136 1603.237183,909.734680 
	C1603.546631,912.035706 1603.624146,914.380981 1603.637329,916.706726 
	C1604.757812,1116.190308 1605.861450,1315.674072 1606.964722,1515.157715 
	C1606.975708,1517.135498 1606.966187,1519.113281 1606.966187,1521.583496 
	C1574.896851,1521.583496 1543.147095,1521.583496 1510.589478,1521.583496 
	C1510.589478,1523.977051 1510.589478,1525.888916 1510.589478,1527.800781 
	C1510.589355,1560.298706 1510.645386,1592.796997 1510.536987,1625.294556 
	C1510.517578,1631.106079 1509.817505,1636.915161 1509.342285,1643.149902 
M549.920410,891.420288 
	C549.589539,897.050232 548.796692,902.697388 549.005737,908.307190 
	C550.059082,936.578369 570.389832,955.922668 598.736877,955.922668 
	C884.699768,955.922974 1170.662720,955.922974 1456.625610,955.920959 
	C1458.791870,955.920959 1460.960083,955.949219 1463.123901,955.868713 
	C1488.729736,954.915649 1508.409424,934.227234 1506.892090,908.684204 
	C1505.860474,891.316895 1503.474854,874.021179 1501.420532,856.726013 
	C1499.441772,840.068787 1497.128540,823.451050 1494.930298,806.820129 
	C1490.458130,772.984497 1485.955933,739.152771 1481.481567,705.317383 
	C1476.313843,666.238770 1471.159668,627.158264 1466.005859,588.077759 
	C1464.530884,576.892090 1463.278320,565.672913 1461.573364,554.522583 
	C1457.712769,529.273621 1438.489136,513.007996 1412.685181,513.006897 
	C1156.718384,512.995850 900.751648,513.000122 644.784851,513.001953 
	C643.451904,513.001953 642.117188,512.988098 640.786316,513.048157 
	C619.601746,514.005249 600.878662,531.145325 597.988770,551.815247 
	C589.990417,609.024109 581.870483,666.215881 573.762207,723.409241 
	C565.864258,779.118896 557.921387,834.822205 549.920410,891.420288 
M1091.500000,368.875793 
	C991.007996,368.875793 890.514893,369.127319 790.024963,368.671692 
	C768.956665,368.576172 753.839233,381.076385 750.636963,398.801056 
	C750.017151,402.231598 749.941833,406.119781 750.906799,409.419128 
	C757.197144,430.927246 769.077698,439.666443 791.316833,439.666626 
	C948.137634,439.668060 1104.958374,439.667694 1261.779175,439.664093 
	C1263.778442,439.664062 1265.783569,439.703735 1267.776245,439.574677 
	C1291.219482,438.055969 1307.020020,416.779816 1300.971924,394.907257 
	C1296.657715,379.305237 1282.845459,368.915527 1265.986084,368.899536 
	C1208.157349,368.844666 1150.328735,368.876831 1091.500000,368.875793 
M598.120789,1167.537354 
	C564.069885,1181.432251 544.409424,1206.644165 542.309692,1243.333984 
	C539.216614,1297.381836 585.452393,1339.389404 639.096924,1331.916016 
	C683.648987,1325.709229 722.127197,1281.792847 710.315613,1228.613892 
	C699.187744,1178.513550 648.908691,1151.367554 598.120789,1167.537354 
M1450.486450,1328.066528 
	C1484.906860,1316.813477 1508.172607,1288.036133 1511.094482,1254.790161 
	C1515.327271,1206.625122 1476.089111,1156.214600 1414.393921,1163.217407 
	C1369.192505,1168.347900 1335.692017,1212.574219 1341.135498,1257.678589 
	C1346.746460,1304.169434 1393.682495,1346.283203 1450.486450,1328.066528 
z"/>
<path fill="#FFC72C" opacity="1.000000" stroke="none" 
	d="
M549.959351,890.974243 
	C557.921387,834.822205 565.864258,779.118896 573.762207,723.409241 
	C581.870483,666.215881 589.990417,609.024109 597.988770,551.815247 
	C600.878662,531.145325 619.601746,514.005249 640.786316,513.048157 
	C642.117188,512.988098 643.451904,513.001953 644.784851,513.001953 
	C900.751648,513.000122 1156.718384,512.995850 1412.685181,513.006897 
	C1438.489136,513.007996 1457.712769,529.273621 1461.573364,554.522583 
	C1463.278320,565.672913 1464.530884,576.892090 1466.005859,588.077759 
	C1471.159668,627.158264 1476.313843,666.238770 1481.481567,705.317383 
	C1485.955933,739.152771 1490.458130,772.984497 1494.930298,806.820129 
	C1497.128540,823.451050 1499.441772,840.068787 1501.420532,856.726013 
	C1503.474854,874.021179 1505.860474,891.316895 1506.892090,908.684204 
	C1508.409424,934.227234 1488.729736,954.915649 1463.123901,955.868713 
	C1460.960083,955.949219 1458.791870,955.920959 1456.625610,955.920959 
	C1170.662720,955.922974 884.699768,955.922974 598.736877,955.922668 
	C570.389832,955.922668 550.059082,936.578369 549.005737,908.307190 
	C548.796692,902.697388 549.589539,897.050232 549.959351,890.974243 
z"/>
<path fill="#FFC72C" opacity="1.000000" stroke="none" 
	d="
M1092.000000,368.875793 
	C1150.328735,368.876831 1208.157349,368.844666 1265.986084,368.899536 
	C1282.845459,368.915527 1296.657715,379.305237 1300.971924,394.907257 
	C1307.020020,416.779816 1291.219482,438.055969 1267.776245,439.574677 
	C1265.783569,439.703735 1263.778442,439.664062 1261.779175,439.664093 
	C1104.958374,439.667694 948.137634,439.668060 791.316833,439.666626 
	C769.077698,439.666443 757.197144,430.927246 750.906799,409.419128 
	C749.941833,406.119781 750.017151,402.231598 750.636963,398.801056 
	C753.839233,381.076385 768.956665,368.576172 790.024963,368.671692 
	C890.514893,369.127319 991.007996,368.875793 1092.000000,368.875793 
z"/>
<path fill="#FEC72C" opacity="1.000000" stroke="none" 
	d="
M598.479004,1167.379150 
	C648.908691,1151.367554 699.187744,1178.513550 710.315613,1228.613892 
	C722.127197,1281.792847 683.648987,1325.709229 639.096924,1331.916016 
	C585.452393,1339.389404 539.216614,1297.381836 542.309692,1243.333984 
	C544.409424,1206.644165 564.069885,1181.432251 598.479004,1167.379150 
z"/>
<path fill="#FEC72C" opacity="1.000000" stroke="none" 
	d="
M1450.100830,1328.176270 
	C1393.682495,1346.283203 1346.746460,1304.169434 1341.135498,1257.678589 
	C1335.692017,1212.574219 1369.192505,1168.347900 1414.393921,1163.217407 
	C1476.089111,1156.214600 1515.327271,1206.625122 1511.094482,1254.790161 
	C1508.172607,1288.036133 1484.906860,1316.813477 1450.100830,1328.176270 
z"/>
</svg>